<?xml version="1.0" standalone="no"?>
<!DOCTYPE svg PUBLIC "-//W3C//DTD SVG 20010904//EN"
 "http://www.w3.org/TR/2001/REC-SVG-20010904/DTD/svg10.dtd">
<svg version="1.0" xmlns="http://www.w3.org/2000/svg"
 width="512.000000pt" height="512.000000pt" viewBox="0 0 512.000000 512.000000"
 preserveAspectRatio="xMidYMid meet">
<metadata>
Created by potrace 1.11, written by Peter Selinger 2001-2013
</metadata>
<g transform="translate(0.000000,512.000000) scale(0.100000,-0.100000)"
fill="#000000" stroke="none">
<path d="M2325 5114 c-16 -2 -66 -9 -110 -15 -452 -60 -896 -251 -1265 -545
-109 -87 -297 -275 -384 -384 -316 -396 -506 -862 -557 -1364 -15 -149 -6
-483 15 -619 54 -335 151 -616 308 -890 398 -694 1068 -1151 1868 -1274 162
-25 558 -25 720 0 696 107 1283 459 1703 1020 322 431 497 964 497 1517 0 688
-263 1324 -750 1810 -391 392 -856 628 -1430 726 -91 15 -539 29 -615 18z
m433 -1714 c160 -38 302 -121 418 -242 62 -64 130 -161 153 -216 12 -29 14
-29 106 -36 363 -25 637 -293 662 -646 8 -118 -15 -228 -73 -349 -38 -77 -60
-108 -127 -175 -91 -90 -159 -134 -269 -174 l-73 -27 -899 -3 c-803 -2 -905
-1 -955 14 -244 71 -406 293 -387 534 11 153 78 292 180 372 51 41 178 108
204 108 7 0 11 3 9 8 -12 18 16 192 43 275 91 272 317 485 594 557 102 27 302
27 414 0z"/>
</g>
</svg>
